# xmcd
#
# Track frame offsets:
#	150
#	10151
#	23690
#	33629
#	44355
#	55239
#	66771
#	78069
#	89757
#	102040
#	115777
#	125108
#	137711
#	150769
#	163883
#	172608
#	183003
#	194866
#	206159
#	216514
#	228001
#	239495
#	253276
#	266322
#	277552
#
# Disc length: 3835 seconds
#
# Revision: 1
# Processed by: cddbd v1.5.2PL0 Copyright (c) Steve Scherf et al.
# Submitted via: audiograbber 1.83.01
#
DISCID=530ef919
DTITLE=Patsy Cline - The Anthology CD 2
DYEAR=1900
DGENRE=
TTITLE0=Heartaches
TTITLE1=She's Got You
TTITLE2=Have You Ever Been Lonely
TTITLE3=San Antonio Rose
TTITLE4=I Don't Wanta
TTITLE5=I've Loved And Lost Again
TTITLE6=Half As Much
TTITLE7=Never No More
TTITLE8=A Poor Man's Roses
TTITLE9=That's My Desire
TTITLE10=Love Love Love Me Honey Do
TTITLE11=You Made Me Love You
TTITLE12=If I Could See The World (Thru The Eyes Of A Child)
TTITLE13=Imagine That
TTITLE14=Ain't No Wheels On This Ship
TTITLE15=He Will Do For You
TTITLE16=If I Could Stay Asleep
TTITLE17=Hungry For Love
TTITLE18=Pick Me Up (On Your Way Down)
TTITLE19=The Heart You Break May Be Your Own
TTITLE20=In Care Of The Blues
TTITLE21=A Church A Courtroom And Then Goodbye
TTITLE22=Life's Railway To Heaven
TTITLE23=That Wonderful Someone
TTITLE24=Three Cigarettes In An Ashtray
EXTD=
EXTT0=
EXTT1=
EXTT2=
EXTT3=
EXTT4=
EXTT5=
EXTT6=
EXTT7=
EXTT8=
EXTT9=
EXTT10=
EXTT11=
EXTT12=
EXTT13=
EXTT14=
EXTT15=
EXTT16=
EXTT17=
EXTT18=
EXTT19=
EXTT20=
EXTT21=
EXTT22=
EXTT23=
EXTT24=
PLAYORDER=
